<svg xmlns="http://www.w3.org/2000/svg" xmlns:xlink="http://www.w3.org/1999/xlink" contentStyleType="text/css" data-diagram-type="CLASS" height="151px" preserveAspectRatio="none" style="width:210px;height:151px;background:#FFFFFF;" version="1.1" viewBox="0 0 210 151" width="210px" zoomAndPan="magnify"><defs/><g><!--class Input--><g class="entity" data-entity="Input" data-source-line="2" data-uid="ent0002" id="entity_Input"><rect fill="#F1F1F1" height="130.4414" rx="2.5" ry="2.5" style="stroke:#181818;stroke-width:0.5;" width="189.7002" x="7" y="7"/><ellipse cx="79.8711" cy="23" fill="#ADD1B2" rx="11" ry="11" style="stroke:#181818;stroke-width:1;"/><path d="M82.3442,29.1431 Q81.7632,29.4419 81.124,29.5913 Q80.4849,29.7407 79.7793,29.7407 Q77.2725,29.7407 75.9526,28.0889 Q74.6328,26.437 74.6328,23.3159 Q74.6328,20.1865 75.9526,18.5347 Q77.2725,16.8828 79.7793,16.8828 Q80.4849,16.8828 81.1323,17.0322 Q81.7798,17.1816 82.3442,17.4805 L82.3442,20.2031 Q81.7134,19.6221 81.1199,19.3523 Q80.5264,19.0825 79.8955,19.0825 Q78.5508,19.0825 77.866,20.1492 Q77.1812,21.2158 77.1812,23.3159 Q77.1812,25.4077 77.866,26.4744 Q78.5508,27.541 79.8955,27.541 Q80.5264,27.541 81.1199,27.2712 Q81.7134,27.0015 82.3442,26.4204 Z " fill="#000000"/><text fill="#000000" font-family="sans-serif" font-size="14" lengthAdjust="spacing" textLength="35.458" x="100.3711" y="28.291">Input</text><line style="stroke:#181818;stroke-width:0.5;" x1="8" x2="195.7002" y1="39" y2="39"/><ellipse cx="18" cy="52.7441" fill="none" rx="3" ry="3" style="stroke:#038048;stroke-width:1;"/><text fill="#000000" font-family="sans-serif" font-size="14" lengthAdjust="spacing" textLength="84.3418" x="27" y="56.5352">value: String</text><ellipse cx="18" cy="69.2324" fill="none" rx="3" ry="3" style="stroke:#038048;stroke-width:1;"/><text fill="#000000" font-family="sans-serif" font-size="14" lengthAdjust="spacing" textLength="57.0117" x="27" y="73.0234">bit: bool</text><line style="stroke:#181818;stroke-width:0.5;" x1="8" x2="195.7002" y1="79.9766" y2="79.9766"/><ellipse cx="18" cy="93.7207" fill="#84BE84" rx="3" ry="3" style="stroke:#038048;stroke-width:1;"/><text fill="#000000" font-family="sans-serif" font-size="14" lengthAdjust="spacing" textLength="163.7002" x="27" y="97.5117">AND(input: Input): Input</text><ellipse cx="18" cy="110.209" fill="#84BE84" rx="3" ry="3" style="stroke:#038048;stroke-width:1;"/><text fill="#000000" font-family="sans-serif" font-size="14" lengthAdjust="spacing" textLength="152.9404" x="27" y="114">OR(input: Input): Input</text><ellipse cx="18" cy="126.6973" fill="#84BE84" rx="3" ry="3" style="stroke:#038048;stroke-width:1;"/><text fill="#000000" font-family="sans-serif" font-size="14" lengthAdjust="spacing" textLength="83.4941" x="27" y="130.4883">NOT(): Input</text></g><!--SRC=[Iyv9B2vMyCmhA2rHgEPIKD0kIymfJRLI22ufoinB1maaPPPOAIJbv-U0E8v-BXgP8CLM43sQK1eavn-4KyhFFqG3pg_bub9NI5AmLSXBBOS8QIWvAsa21PDH1Pt0WeceWev0GP2e7iWfIPfwG5kJDVN05kW1dSe50000]--></g></svg>